<?xml version="1.0" encoding="UTF-8"?>
<svg xmlns="http://www.w3.org/2000/svg" width="1024" height="1024" viewBox="0 0 1024 1024">
  <path fill="#000000" d="M395.3429706114151 696.7917109591612Q388.32125632570086 696.7917109591612 388.32125632570086 691.7762007550796Q388.32125632570086 686.7606905509979 396.34607265223144 685.2560374897733L417.4112155093743 681.7451803469163Q427.4422359175376 680.2405272856918 432.4577461216192 676.4788946326305Q437.47325632570085 672.7172619795693 439.4794604073335 662.1846905509979L509.19505224406817 361.2540783060999Q510.6997053052927 354.23236402038566 507.9411746930478 351.22305789793666Q505.1826440808029 348.2137517754877 495.6531746930478 348.2137517754877Q478.60043999917025 348.2137517754877 458.2876236726396 362.0064048367122Q437.974807346109 375.7990578979367 421.9251746930478 413.4153844285489L413.90035836651714 432.47432320405915Q411.39260326447635 438.99448646936526 405.3739910195784 438.99448646936526Q398.35227673386413 438.99448646936526 400.8600318359049 430.46811912242646L425.9375828563131 339.6873844285489Q428.9468889787621 328.15171095916116 436.9717053052927 328.15171095916116Q441.48566448896617 328.15171095916116 444.24419510121106 329.90713953058975Q447.00272571345596 331.6625681020183 453.52288897876207 333.66877218365096Q460.0430522440682 335.6749762652836 476.0926848971294 335.6749762652836H587.9385624481498Q603.988195101211 335.6749762652836 611.7622359175375 333.66877218365096Q619.536276733864 331.6625681020183 623.2979093869253 329.90713953058975Q627.0595420399866 328.15171095916116 630.0688481624355 328.15171095916116Q638.5952155093744 328.15171095916116 636.0874604073335 339.6873844285489L620.0378277542723 430.46811912242646Q618.5331746930478 438.99448646936526 611.5114604073335 438.99448646936526Q604.9912971420274 438.99448646936526 605.9943991828437 432.47432320405915L606.99750122366 419.935547693855Q610.006807346109 382.82077218365094 597.4680318359049 365.5172619795693Q584.9292563257009 348.2137517754877 562.3594604073335 348.2137517754877Q552.8299910195784 348.2137517754877 549.0683583665173 351.22305789793666Q545.306725713456 354.23236402038566 543.8020726522315 361.2540783060999L474.08648081549677 662.1846905509979Q471.5787257134559 672.7172619795693 474.838807346109 676.4788946326305Q478.09888897876203 680.2405272856918 487.62835836651715 681.7451803469163L511.20125632570085 685.2560374897733Q516.7183175501907 685.7575885101816 516.7183175501907 690.7730987142631Q516.7183175501907 696.7917109591612 508.69350122366006 696.7917109591612Z"/>
</svg>
